# File created by Blade
# Date/Time:  Tue Jan 27 18:12:42 2015
# Frame Rate: 120.000 fps
#------------------------------------------------------
:FULLY-SPECIFIED
:DEGREES
3024
root -1.422288 31.857096 -6.438266 7.183621 3.683695 2.881656
Spine -4.625111 -21.209373 -2.403241
Head 14.053775 18.614323 10.860261
LeftShoulder -15.660658 17.223774 4.359483
LeftArm 27.320654 39.685680 -68.626560
LeftForeArm -1.369485 0.000000 17.308240
LeftHand -11.646321 0.000000 -2.678494
LeftHandThumb1 -26.253704 0.000000 33.147579
RightShoulder -18.620146 -6.736201 -21.608594
RightArm -22.734928 57.678644 50.874025
RightForeArm 36.484437 -0.000000 23.661578
RightHand -16.731574 -0.000000 -10.602006
RightHandThumb1 -24.326973 -0.000000 -32.862282
LeftUpLeg -2.102752 1.615231 -1.018805
LeftLeg 0.482705 -0.000000 -0.000000
LeftFoot -18.518848 17.217798 -25.082921
LeftToeBase 8.593921 -0.000000 -0.000000
RightUpLeg -0.783281 -1.035926 -3.663194
RightLeg -2.726016 -0.000000 0.000000
RightFoot -15.229091 -13.382271 9.949550
RightToeBase 5.009136 -0.000000 -0.000000
3025
root -1.418273 31.856470 -6.430134 7.158546 3.629558 2.882653
Spine -4.646300 -21.208688 -2.378307
Head 14.058261 18.533463 10.861447
LeftShoulder -15.677149 17.239539 4.330322
LeftArm 27.318382 39.681868 -68.638151
LeftForeArm -1.378636 0.000000 17.325589
LeftHand -11.761895 -0.000000 -2.644205
LeftHandThumb1 -26.253704 0.000000 33.147579
RightShoulder -18.643370 -6.703480 -21.576381
RightArm -23.128100 58.084195 50.303038
RightForeArm 36.703715 -0.000000 24.994477
RightHand -16.583814 -0.000000 -11.150745
RightHandThumb1 -24.326973 -0.000000 -32.862282
LeftUpLeg -2.062490 1.628102 -1.029337
LeftLeg 0.497615 -0.000000 -0.000000
LeftFoot -18.563793 17.231154 -25.116174
LeftToeBase 8.600915 -0.000000 -0.000000
RightUpLeg -0.760968 -1.070534 -3.673197
RightLeg -2.709164 -0.000000 0.000000
RightFoot -15.222377 -13.300293 9.921902
RightToeBase 4.963633 -0.000000 -0.000000
3026
root -1.413909 31.856130 -6.421467 7.126614 3.588452 2.878384
Spine -4.663288 -21.218371 -2.342070
Head 14.080770 18.470193 10.868612
LeftShoulder -15.692728 17.258028 4.292399
LeftArm 27.325831 39.693774 -68.627833
LeftForeArm -1.397771 0.000000 17.339222
LeftHand -11.739091 -0.000000 -2.629544
LeftHandThumb1 -26.253704 0.000000 33.147579
RightShoulder -18.605667 -6.563747 -21.573773
RightArm -23.848566 58.428278 49.449680
RightForeArm 36.715981 -0.000000 26.360998
RightHand -16.395596 -0.000000 -11.095954
RightHandThumb1 -24.326973 -0.000000 -32.862282
LeftUpLeg -2.013845 1.651801 -1.033954
LeftLeg 0.503591 -0.000000 -0.000000
LeftFoot -18.599594 17.227669 -25.140223
LeftToeBase 8.617214 -0.000000 -0.000000
RightUpLeg -0.731483 -1.102058 -3.678284
RightLeg -2.686094 -0.000000 0.000000
RightFoot -15.232901 -13.242593 9.892213
RightToeBase 4.984423 -0.000000 -0.000000
3027
root -1.410541 31.856093 -6.415027 7.106230 3.541795 2.871759
Spine -4.684627 -21.244159 -2.306568
Head 14.097238 18.402027 10.883715
LeftShoulder -15.727491 17.304240 4.254069
LeftArm 27.374170 39.716217 -68.583430
LeftForeArm -1.439348 -0.000000 17.365325
LeftHand -11.700101 -0.000000 -2.497881
LeftHandThumb1 -26.253704 0.000000 33.147579
RightShoulder -18.595310 -6.520060 -21.544017
RightArm -24.333478 58.812884 48.816366
RightForeArm 36.781109 -0.000000 27.776531
RightHand -16.176141 -0.000000 -10.925898
RightHandThumb1 -24.326973 -0.000000 -32.862282
LeftUpLeg -1.980514 1.662331 -1.036298
LeftLeg 0.513236 -0.000000 -0.000000
LeftFoot -18.626629 17.251969 -25.139188
LeftToeBase 8.618585 -0.000000 -0.000000
RightUpLeg -0.713947 -1.072898 -3.681245
RightLeg -2.672544 -0.000000 0.000000
RightFoot -15.231796 -13.231040 9.904948
RightToeBase 4.926451 -0.000000 -0.000000
3028
root -1.405724 31.855878 -6.408578 7.085228 3.498710 2.873900
Spine -4.707086 -21.253676 -2.272511
Head 14.105770 18.311820 10.877525
LeftShoulder -15.720962 17.313933 4.233344
LeftArm 27.336170 39.697366 -68.619629
LeftForeArm -1.422011 0.000000 17.399058
LeftHand -11.686131 0.000000 -2.478904
LeftHandThumb1 -26.253704 0.000000 33.147579
RightShoulder -18.618054 -6.446244 -21.521356
RightArm -24.857724 59.195962 48.152446
RightForeArm 36.817525 -0.000000 29.301453
RightHand -15.943171 -0.000000 -10.996331
RightHandThumb1 -24.326973 -0.000000 -32.862282
LeftUpLeg -1.946885 1.685866 -1.050039
LeftLeg 0.522538 -0.000000 -0.000000
LeftFoot -18.646353 17.265361 -25.139348
LeftToeBase 8.590592 -0.000000 -0.000000
RightUpLeg -0.699504 -1.059630 -3.693779
RightLeg -2.646976 -0.000000 0.000000
RightFoot -15.250942 -13.208738 9.894204
RightToeBase 4.960220 -0.000000 -0.000000
3029
root -1.401167 31.855713 -6.403283 7.071458 3.454390 2.874629
Spine -4.736920 -21.265408 -2.236899
Head 14.123724 18.235699 10.893341
LeftShoulder -15.724969 17.342159 4.216189
LeftArm 27.344354 39.711692 -68.618850
LeftForeArm -1.447053 -0.000000 17.425332
LeftHand -11.625294 -0.000000 -2.525288
LeftHandThumb1 -26.253704 0.000000 33.147579
RightShoulder -18.636941 -6.405620 -21.490815
RightArm -25.361034 59.657804 47.512773
RightForeArm 36.732416 -0.000000 30.876494
RightHand -15.808594 -0.000000 -10.953493
RightHandThumb1 -24.326973 -0.000000 -32.862282
LeftUpLeg -1.920805 1.691835 -1.062128
LeftLeg 0.526548 -0.000000 -0.000000
LeftFoot -18.680379 17.282472 -25.172728
LeftToeBase 8.612187 -0.000000 -0.000000
RightUpLeg -0.686045 -1.020197 -3.708955
RightLeg -2.641278 -0.000000 0.000000
RightFoot -15.251626 -13.189268 9.906117
RightToeBase 4.935336 -0.000000 -0.000000
